<?xml version="1.0" encoding="UTF-8"?>
<svg id="Capa_1" xmlns="http://www.w3.org/2000/svg" version="1.1" viewBox="0 0 207.5 40.6">
  <!-- Generator: Adobe Illustrator 30.1.0, SVG Export Plug-In . SVG Version: 2.1.1 Build 136)  -->
  <defs>
    <style>
      .st0 {
        fill: #fff;
      }
    </style>
  </defs>
  <path class="st0" d="M44.1,25.4V1.3h3.6v24.2c0,7.9,4.5,12.3,13,12.3s13-4.5,13-12.3V1.3h3.6v24.1c0,9.6-5.9,15.2-16.5,15.2s-16.5-5.6-16.5-15.2"/>
  <path class="st0" d="M88.2,39.9V1.3h15.6c8.9,0,13.7,3.4,13.7,9.8s-2.8,7.6-7.1,8.6c6.4,1.2,9.5,4.4,9.5,9.6s-5.1,10.7-14.3,10.7h-17.3ZM91.8,18.6h12.1c6.4,0,9.9-2.6,9.9-7.3s-3.6-7.1-9.9-7.1h-12.1v14.4ZM91.8,37.1h13.5c7.2,0,10.9-2.6,10.9-7.8s-3.9-7.9-11-7.9h-13.3v15.7Z"/>
  <path class="st0" d="M147.6,40.1c-11,0-19.9-8.9-19.9-19.9S136.7.2,147.6.2s19.9,8.9,19.9,19.9-8.9,19.9-19.9,19.9M147.6,3.4c-9.2,0-16.8,7.5-16.8,16.8s7.5,16.8,16.8,16.8,16.8-7.5,16.8-16.8-7.5-16.8-16.8-16.8"/>
  <polygon class="st0" points="174 0 175.7 0 175.7 8.8 182.7 8.8 182.7 10.4 174 10.4 174 0"/>
  <path class="st0" d="M188.5,0h2.2l5.2,10.4h-1.9l-4.9-10.1h.9l-4.9,10.1h-1.9L188.5,0ZM186.9,6.4h5.3l.8,1.6h-6.9l.8-1.6Z"/>
  <path class="st0" d="M197.2,0h1.8v10.4h-1.8V0ZM198,8.8h5.9c.6,0,1.1,0,1.4-.3.3-.2.5-.6.5-1.1s-.2-.9-.5-1.1c-.3-.2-.8-.3-1.4-.3h-5.9v-1.5h5.5c.4,0,.8,0,1-.1s.5-.2.6-.4c.1-.2.2-.5.2-.9s-.2-.9-.5-1.1c-.3-.2-.8-.3-1.4-.3h-5.5V0h5.2c1.3,0,2.3.2,3,.6.7.4,1,1.1,1,2.1s-.2,1.2-.5,1.7c-.3.4-.8.8-1.5,1v-.6c.8.2,1.4.5,1.8,1,.4.5.6,1.1.6,1.8s-.3,1.7-1,2.1c-.7.4-1.7.6-3,.6h-5.5v-1.6Z"/>
  <polygon class="st0" points="0 39.9 0 1.3 4 1.3 29.8 35 29.8 1.3 33.2 1.3 33.2 39.9 29.3 39.9 3.4 6.2 3.4 39.9 0 39.9"/>
</svg>